<?xml version="1.0" encoding="UTF-8" standalone="no"?>
<!-- Generator: Adobe Illustrator 19.1.0, SVG Export Plug-In . SVG Version: 6.00 Build 0)  -->

<svg
   xmlns:dc="http://purl.org/dc/elements/1.1/"
   xmlns:cc="http://creativecommons.org/ns#"
   xmlns:rdf="http://www.w3.org/1999/02/22-rdf-syntax-ns#"
   xmlns:svg="http://www.w3.org/2000/svg"
   xmlns="http://www.w3.org/2000/svg"
   xmlns:sodipodi="http://sodipodi.sourceforge.net/DTD/sodipodi-0.dtd"
   xmlns:inkscape="http://www.inkscape.org/namespaces/inkscape"
   version="1.1"
   x="0px"
   y="0px"
   viewBox="0 0 230 90"
   enable-background="new 0 0 230 90"
   xml:space="preserve"
   id="svg2"
   inkscape:version="0.91 r13725"
   sodipodi:docname="linode-logo.svg"><metadata
     id="metadata36"><rdf:RDF><cc:Work
         rdf:about=""><dc:format>image/svg+xml</dc:format><dc:type
           rdf:resource="http://purl.org/dc/dcmitype/StillImage" /></cc:Work></rdf:RDF></metadata><defs
     id="defs34" /><sodipodi:namedview
     pagecolor="#ffffff"
     bordercolor="#666666"
     borderopacity="1"
     objecttolerance="10"
     gridtolerance="10"
     guidetolerance="10"
     inkscape:pageopacity="0"
     inkscape:pageshadow="2"
     inkscape:window-width="1580"
     inkscape:window-height="952"
     id="namedview32"
     showgrid="false"
     inkscape:zoom="1.8869565"
     inkscape:cx="30.737327"
     inkscape:cy="45"
     inkscape:window-x="96"
     inkscape:window-y="68"
     inkscape:window-maximized="0"
     inkscape:current-layer="svg2" /><g
     id="DO_NOT_PRINT"
     display="none"><rect
       x="-178.6"
       y="-75.1"
       display="inline"
       fill="#7D1416"
       width="606.3"
       height="248.3"
       id="rect5" /></g><g
     id="g10"
     style="fill:#000000;fill-opacity:1"><path
       d="m 93.8,27.8 5.8,-1.4 0,28 c 0,3.1 0.9,4.9 2.7,5.5 -0.9,1.7 -2.4,2.6 -4.6,2.6 -2.6,0 -4,-1.8 -4,-5.5 l 0,-29.2 z"
       id="path12"
       inkscape:connector-curvature="0"
       style="fill:#000000;fill-opacity:1" /><path
       d="m 108.4,62 0,-20.2 -3.2,0 0,-4.8 9.1,0 0,25 -5.9,0 z m 3,-34.6 c 0.9,0 1.7,0.3 2.4,1 0.7,0.7 1,1.5 1,2.4 0,0.9 -0.3,1.7 -1,2.4 -0.7,0.7 -1.5,1 -2.4,1 -0.9,0 -1.7,-0.3 -2.4,-1 -0.7,-0.7 -1,-1.5 -1,-2.4 0,-0.9 0.3,-1.7 1,-2.4 0.7,-0.7 1.5,-1 2.4,-1 z"
       id="path14"
       inkscape:connector-curvature="0"
       style="fill:#000000;fill-opacity:1" /><path
       d="m 137.1,62 0,-14.4 c 0,-2.1 -0.4,-3.7 -1.2,-4.6 -0.8,-1 -2.1,-1.5 -4,-1.5 -0.9,0 -1.8,0.2 -2.7,0.7 -1,0.5 -1.7,1.1 -2.3,1.8 l 0,18 -5.8,0 0,-24.9 4.2,0 1.1,2.3 c 1.6,-1.9 3.9,-2.8 7,-2.8 3,0 5.3,0.9 7,2.7 1.7,1.8 2.6,4.3 2.6,7.4 l 0,15.3 -5.9,0 z"
       id="path16"
       inkscape:connector-curvature="0"
       style="fill:#000000;fill-opacity:1" /><path
       d="m 147.5,49.5 c 0,-3.8 1.1,-6.9 3.3,-9.3 2.2,-2.4 5.1,-3.6 8.7,-3.6 3.8,0 6.7,1.1 8.8,3.4 2.1,2.3 3.1,5.4 3.1,9.4 0,4 -1.1,7.1 -3.2,9.5 -2.1,2.3 -5,3.5 -8.8,3.5 -3.8,0 -6.7,-1.2 -8.8,-3.5 -2,-2.4 -3.1,-5.5 -3.1,-9.4 z m 6.1,0 c 0,5.5 2,8.2 5.9,8.2 1.8,0 3.2,-0.7 4.3,-2.1 1.1,-1.4 1.6,-3.5 1.6,-6.1 0,-5.4 -2,-8.1 -5.9,-8.1 -1.8,0 -3.3,0.7 -4.3,2.1 -1.1,1.4 -1.6,3.4 -1.6,6 z"
       id="path18"
       inkscape:connector-curvature="0"
       style="fill:#000000;fill-opacity:1" /><path
       d="m 192.1,62 0,-1.5 c -0.5,0.5 -1.3,1 -2.4,1.4 -1.1,0.4 -2.3,0.6 -3.6,0.6 -3.5,0 -6.2,-1.1 -8.2,-3.3 -2,-2.2 -3,-5.3 -3,-9.2 0,-3.9 1.1,-7.1 3.4,-9.6 2.3,-2.5 5.1,-3.7 8.6,-3.7 1.9,0 3.6,0.4 5.2,1.2 l 0,-10 5.8,-1.4 0,35.5 -5.8,0 z m 0,-19 c -1.2,-1 -2.5,-1.5 -3.9,-1.5 -2.3,0 -4.1,0.7 -5.4,2.1 -1.3,1.4 -1.9,3.5 -1.9,6.1 0,5.2 2.5,7.8 7.5,7.8 0.6,0 1.2,-0.2 2.1,-0.5 0.8,-0.3 1.3,-0.7 1.6,-1 l 0,-13 z"
       id="path20"
       inkscape:connector-curvature="0"
       style="fill:#000000;fill-opacity:1" /><path
       d="m 226,51.3 -17.8,0 c 0.1,2 0.8,3.5 2,4.6 1.3,1.1 2.9,1.7 5.1,1.7 2.6,0 4.7,-0.7 6,-2.1 l 2.3,4.4 c -2,1.7 -5.1,2.5 -9.2,2.5 -3.8,0 -6.8,-1.1 -9,-3.3 -2.2,-2.2 -3.3,-5.3 -3.3,-9.3 0,-3.9 1.2,-7.1 3.6,-9.5 2.4,-2.4 5.3,-3.6 8.7,-3.6 3.6,0 6.5,1.1 8.7,3.2 2.2,2.2 3.3,4.9 3.3,8.2 0.1,0.7 -0.1,1.7 -0.4,3.2 z m -17.6,-4.4 12.2,0 c -0.4,-3.6 -2.4,-5.5 -6,-5.5 -3.3,0.1 -5.4,1.9 -6.2,5.5 z"
       id="path22"
       inkscape:connector-curvature="0"
       style="fill:#000000;fill-opacity:1" /></g><g
     id="g24"><path
       d="m 65.9,47.4 -1,11.5 -3.3,-2.3 0.4,-5.8 c 0,0 0,0 0,0 0,0 0,0 0,0 0,0 0,0 0,-0.1 0,0 0,0 0,0 0,0 0,-0.1 0,-0.1 0,0 0,0 0,0 0,0 -0.1,-0.1 -0.1,-0.1 0,0 0,0 0,0 0,0 0,0 -0.1,-0.1 l -7.1,-4.7 0.1,-5.1 11.1,6.8 z M 48.5,59.9 43.4,56 l 0,0.9 c 0,0.2 -0.1,0.4 -0.2,0.5 l -3.8,2.6 4.2,3.4 c 0,0 0,0 0,0 0,0 0,0 0,0 0,0 0,0 0.1,0.1 0,0 0,0 0,0 0,0 0,0 0,0.1 0,0 0,0 0,0 0,0 0,0.1 0,0.1 0,0 0,0 0,0 l 0.2,4 4.7,3.9 -0.1,-11.7 z m -32.1,5 2.4,11.5 9.9,10.5 L 27,75.3 16.4,64.9 Z m 9.3,1.7 -2.4,-16.1 -12,-10 3.2,15.6 11.2,10.5 z M 21.9,40.6 18.6,17.8 4.8,9.2 9.3,30.7 21.9,40.6 Z"
       id="path26"
       inkscape:connector-curvature="0"
       style="fill:#004712" /><path
       d="M 75.7,41.2 74.2,52.1 66,58.7 67,47.5 75.7,41.2 Z M 49.6,59.9 49.7,71.7 60.2,63.3 60.9,51.8 49.6,59.9 Z M 42.8,64.7 28,75.3 29.8,87.5 43.2,76.8 42.8,64.7 Z m -0.4,-8 -0.7,-16 -17.3,9.9 2.4,16.6 15.6,-10.5 z M 41.3,31.4 40.4,9.8 19.6,17.8 23,41 41.3,31.4 Z"
       id="path28"
       inkscape:connector-curvature="0"
       style="fill:#00b259" /><path
       d="m 76.9,40 c 0,0 0,0 0,0 0,-0.1 0,-0.1 0,0 0,-0.1 0,-0.1 0,-0.2 0,0 0,0 0,0 0,0 0,-0.1 -0.1,-0.1 0,0 0,0 0,0 0,0 -0.1,0 -0.1,-0.1 0,0 0,0 0,0 0,0 0,0 0,0 0,0 0,0 0,0 l -12,-6.7 c -0.2,-0.1 -0.4,-0.1 -0.5,0 L 54,39.1 c 0,0 0,0 0,0 0,0 0,0 -0.1,0 0,0 0,0 0,0.1 0,0 0,0 0,0.1 0,0 0,0 0,0.1 0,0 0,0 0,0.1 0,0 0,0.1 0,0.1 0,0 0,0 0,0.1 l -0.1,5.4 -4.1,-2.7 c -0.2,-0.1 -0.4,-0.1 -0.6,0 l -6.1,3.4 -0.3,-6 c 0,0 0,0 0,0 0,0 0,-0.1 0,-0.1 0,0 0,0 0,-0.1 0,0 0,0 0,-0.1 0,0 0,0 0,-0.1 0,0 0,0 0,-0.1 0,0 0,0 -0.1,0 0,0 0,0 0,0 l -6.2,-4.1 5.8,-3 c 0.2,-0.1 0.3,-0.3 0.3,-0.5 L 41.4,9 c 0,0 0,-0.1 0,-0.1 0,0 0,0 0,0 0,0 0,-0.1 -0.1,-0.1 0,0 0,0 0,0 0,0 0,-0.1 -0.1,-0.1 0,0 0,0 0,0 0,0 0,0 0,0 0,0 0,0 0,0 0,0 0,0 0,0 L 25.5,1.1 C 25.4,1 25.3,1 25.2,1 L 3.9,7.6 c 0,0 0,0 0,0 0,0 0,0 0,0 0,0 -0.1,0 -0.1,0.1 0,0 0,0 0,0 0,0 0,0 0,0 0,0 -0.1,0 -0.1,0.1 0,0 0,0 0,0.1 0,0 0,0 0,0.1 0,0 0,0.1 0,0.1 0,0 0,0 0,0.1 0,0 0,0 0,0 0,0 0,0.1 0,0.1 0,0 0,0 0,0.1 0,0 0,0 0,0 l 4.7,22.9 c 0,0.1 0.1,0.2 0.2,0.3 l 6.4,5 -4.7,2.2 c 0,0 0,0 0,0 0,0 0,0 0,0 0,0 0,0 0,0 0,0 -0.1,0 -0.1,0.1 0,0 0,0 0,0 0,0 0,0.1 -0.1,0.1 0,0 0,0 0,0 0,0 0,0.1 0,0.1 0,0 0,0 0,0 0,0 0,0 0,0 0,0 0,0.1 0,0.1 0,0 0,0 0,0 l 3.6,17.2 c 0,0.1 0.1,0.2 0.2,0.3 l 4.5,4.2 -3,1.8 c 0,0 -0.1,0.1 -0.1,0.1 0,0 0,0 0,0 0,0 0,0.1 -0.1,0.1 0,0 0,0 0,0 0,0 0,0.1 0,0.1 0,0.1 0,0.1 0,0.2 0,0 0,0 0,0 L 18,76.5 c 0,0.1 0.1,0.2 0.1,0.3 l 10.9,12 c 0,0 0,0 0.1,0 0,0 0,0 0,0 0,0 0.1,0 0.1,0.1 0,0 0,0 0,0 0,0 0,0 0,0 0.1,0 0.1,0 0.2,0 0.1,0 0.1,0 0.2,0 0,0 0,0 0,0 0,0 0,0 0,0 0,0 0,0 0.1,0 0,0 0,0 0,0 L 44.1,77.4 c 0.1,-0.1 0.2,-0.3 0.2,-0.4 l -0.3,-7.9 4.8,4 c 0,0 0,0 0,0 0,0 0.1,0 0.1,0.1 0,0 0,0 0,0 0,0 0,0 0,0 0.1,0 0.1,0 0.2,0 0.1,0 0.1,0 0.2,0 0,0 0,0 0,0 0,0 0,0 0,0 0,0 0,0 0.1,0 0,0 0,0 0,0 L 61,64 c 0.1,-0.1 0.2,-0.2 0.2,-0.4 l 0.4,-5.8 3.5,2.4 c 0,0 0,0 0,0 0,0 0,0 0,0 0,0 0,0 0.1,0 0,0 0,0 0,0 0,0 0.1,0 0.1,0 0.1,0 0.1,0 0.2,0 0,0 0,0 0,0 0,0 0,0 0,0 0,0 0.1,0 0.1,-0.1 0,0 0,0 0,0 L 75,52.6 c 0.1,-0.1 0.2,-0.2 0.2,-0.3 L 76.9,40 c 0,0.1 0,0.1 0,0 0,0 0,0 0,0 z M 66,58.7 67,47.5 75.8,41.2 74.3,52.1 66,58.7 Z M 61.6,56.6 62,50.8 c 0,0 0,0 0,0 0,0 0,0 0,0 0,0 0,0 0,-0.1 0,0 0,0 0,0 0,0 0,-0.1 0,-0.1 0,0 0,0 0,0 0,0 -0.1,-0.1 -0.1,-0.1 0,0 0,0 0,0 0,0 0,0 -0.1,-0.1 l -7.1,-4.7 0.1,-5.1 11.1,6.9 -1,11.5 -3.3,-2.4 z M 60.1,63.3 49.6,71.7 49.5,59.9 60.8,51.8 60.1,63.3 Z M 43.3,76.8 29.8,87.5 28,75.3 42.7,64.8 l 0.6,12 z M 18.7,76.4 16.3,64.9 27,75.3 28.7,86.9 18.7,76.4 Z M 18.5,17.8 21.8,40.6 9.3,30.7 4.8,9.2 18.5,17.8 Z M 40.4,9.8 41.3,31.4 23,41 19.6,17.8 40.4,9.8 Z m 2,46.9 -15.6,10.4 -2.4,-16.6 17.3,-9.9 0.7,16.1 z M 23.3,50.6 25.7,66.7 14.5,56.1 11.3,40.5 l 12,10.1 z m 20.5,13.1 c 0,0 0,0 0,0 0,-0.1 0,-0.1 0,-0.1 0,0 0,0 0,0 0,0 0,-0.1 0,-0.1 0,0 0,0 0,0 0,0 0,0 -0.1,-0.1 0,0 0,0 0,0 0,0 0,0 0,0 L 39.5,60 43.3,57.4 c 0.2,-0.1 0.2,-0.3 0.2,-0.5 l 0,-0.9 5.1,3.9 0.1,11.8 -4.7,-3.9 -0.2,-4.1 z"
       id="path30"
       inkscape:connector-curvature="0" /></g></svg>