<?xml version="1.0" encoding="UTF-8"?> <!-- Generator: Adobe Illustrator 24.3.0, SVG Export Plug-In . SVG Version: 6.00 Build 0) --> <svg xmlns="http://www.w3.org/2000/svg" xmlns:xlink="http://www.w3.org/1999/xlink" version="1.1" id="Layer_1" x="0px" y="0px" viewBox="0 0 50 35.4" style="enable-background:new 0 0 50 35.4;" xml:space="preserve"> <style type="text/css"> .st0{fill:#000000;} </style> <path class="st0" d="M0,17.6c0.5-0.8,1.1-1.6,1.6-2.4c3.2-4.6,7.3-8.5,12-11.6c3.1-2.1,6.6-3.3,10.3-3.6c3.1-0.2,6.2,0.4,9,1.8 c3.3,1.5,6.3,3.6,8.9,6.1c2.9,2.6,5.4,5.6,7.6,8.9c0.2,0.3,0.3,0.6,0.5,0.9c-0.1,0.3-0.3,0.6-0.4,0.9c-3.5,5.3-8,9.8-13.3,13.3 c-3,2-6.6,3.2-10.2,3.5c-3.1,0.1-6.2-0.5-9-1.8c-3.2-1.5-6.2-3.5-8.7-5.9c-2.9-2.7-5.5-5.7-7.7-9C0.4,18.4,0.2,18.1,0,17.6z M45.9,17.8c-0.1-0.2-0.1-0.3-0.2-0.5c-0.4-0.6-0.9-1.2-1.4-1.7C41.4,12,37.9,8.9,34,6.5c-2.1-1.3-4.5-2.2-6.9-2.5 c-3.3-0.4-6.7,0.2-9.6,1.8C12.9,8.2,9,11.5,5.8,15.6c-0.5,0.7-1,1.4-1.6,2.1c0.6,0.8,1.1,1.5,1.7,2.1c2.9,3.6,6.3,6.7,10.2,9.1 c6,3.6,11.9,3.6,17.9,0.1c3.3-2,6.3-4.6,8.9-7.5C43.9,20.3,44.8,19.1,45.9,17.8L45.9,17.8z"></path> <path class="st0" d="M34,17.7c0.1,4.9-3.9,9-8.8,9c0,0-0.1,0-0.1,0c-5,0-9-4-9-8.9c0-5,4-9,8.9-9C29.9,8.7,33.9,12.7,34,17.7 C34,17.6,34,17.6,34,17.7z"></path> </svg>
